<svg xmlns="http://www.w3.org/2000/svg" width="32" height="32" viewBox="0 0 32 32" fill="none"><path d="M24 0H8C6.342 0 5 1.343 5 3V29C5 30.658 6.343 32 8 32H24C25.656 32 27 30.656 27 29V3C27 1.342 25.656 0 24 0ZM25 29C25 29.551 24.551 30 24 30H8C7.448 30 7 29.553 7 29V26.996H25V29ZM25 25.996H7V6H25V25.996ZM25 5H7V3C7 2.448 7.448 2 8 2H24C24.551 2 25 2.448 25 3V5Z" fill="#318A5A"></path><path d="M18 3.5C18 3.776 17.775 4 17.5 4H14.5C14.223 4 14 3.776 14 3.5C14 3.223 14.223 3 14.5 3H17.5C17.775 3 18 3.223 18 3.5Z" fill="#318A5A"></path><path d="M17 28.496C17 28.771 16.775 28.996 16.5 28.996H15.5C15.224 28.996 15 28.771 15 28.496C15 28.219 15.224 27.996 15.5 27.996H16.5C16.775 27.996 17 28.219 17 28.496Z" fill="#318A5A"></path></svg>