<svg xmlns="http://www.w3.org/2000/svg" width="32" height="32" viewBox="0 0 32 32" fill="none"><path d="M28 5H4C1.791 5 0 6.792 0 9V22C0 24.209 1.791 26 4 26H28C30.209 26 32 24.209 32 22V9C32 6.792 30.209 5 28 5ZM2 10.25L8.999 15.5L2 20.75V10.25ZM30 22C30 23.104 29.102 24 28 24H4C2.897 24 2 23.104 2 22L9.832 16.125L14.2 19.402C14.733 19.8 15.366 20.002 16 20.002C16.633 20.002 17.266 19.801 17.799 19.402L22.168 16.125L30 22ZM30 20.75L23 15.5L30 10.25V20.75ZM17.199 18.602C16.85 18.864 16.436 19.002 16 19.002C15.564 19.002 15.149 18.863 14.8 18.602L10.665 15.5L9.832 14.875L2 9.001V9C2 7.897 2.897 7 4 7H28C29.102 7 30 7.897 30 9L17.199 18.602Z" fill="#318A5A"></path></svg>