<?xml version="1.0" standalone="no"?>
<!DOCTYPE svg PUBLIC "-//W3C//DTD SVG 20010904//EN"
 "http://www.w3.org/TR/2001/REC-SVG-20010904/DTD/svg10.dtd">
<svg version="1.0" xmlns="http://www.w3.org/2000/svg"
 width="512.000000pt" height="512.000000pt" viewBox="0 0 512.000000 512.000000"
 preserveAspectRatio="xMidYMid meet">

<g transform="translate(0.000000,512.000000) scale(0.100000,-0.100000)"
fill="#000000" stroke="none">
<path d="M2535 5110 c-11 -4 -139 -94 -285 -200 l-264 -192 -56 4 c-30 3 -182
18 -338 34 -254 26 -285 27 -309 14 -21 -12 -54 -76 -164 -324 l-137 -308
-303 -135 c-167 -74 -312 -142 -321 -150 -24 -22 -23 -56 12 -388 16 -154 30
-292 30 -306 0 -19 -58 -106 -191 -290 -105 -145 -195 -274 -200 -286 -5 -13
-5 -33 0 -45 5 -13 95 -141 200 -286 136 -187 191 -271 191 -290 0 -15 -14
-153 -30 -307 -35 -332 -36 -366 -12 -388 9 -8 154 -76 321 -150 l303 -135
137 -308 c110 -248 143 -312 164 -324 24 -13 55 -12 309 14 156 16 308 31 338
34 l56 4 264 -192 c146 -106 275 -196 288 -201 12 -5 32 -5 45 0 12 5 141 95
286 200 184 134 271 191 290 191 14 0 152 -14 306 -30 332 -35 366 -36 388
-12 8 9 76 154 150 321 l135 303 303 135 c167 74 312 142 322 150 23 22 22 57
-13 388 -16 154 -30 292 -30 306 0 19 57 105 191 290 105 145 195 274 200 287
5 12 5 32 0 45 -5 12 -95 141 -200 286 -133 183 -191 272 -191 290 0 14 14
152 30 306 35 331 36 366 13 388 -10 8 -155 76 -322 150 l-303 135 -135 303
c-74 167 -142 312 -150 322 -22 23 -56 22 -388 -13 -154 -16 -292 -30 -307
-30 -18 0 -98 52 -265 173 -297 215 -294 213 -318 220 -11 3 -29 2 -40 -3z
m277 -356 c134 -97 257 -182 273 -189 25 -11 79 -8 345 21 173 18 318 30 321
26 3 -4 61 -133 129 -287 68 -154 133 -289 144 -301 12 -11 145 -76 296 -143
151 -67 280 -125 287 -129 9 -6 4 -83 -21 -322 -28 -264 -32 -320 -21 -345 7
-16 92 -139 189 -273 97 -133 176 -247 176 -252 0 -5 -79 -119 -176 -252 -97
-134 -182 -256 -189 -273 -11 -25 -8 -79 21 -345 25 -241 30 -316 21 -322 -7
-4 -136 -62 -287 -129 -151 -67 -284 -132 -296 -143 -11 -12 -76 -147 -144
-301 -68 -154 -126 -283 -129 -287 -3 -4 -148 8 -321 26 -266 29 -320 32 -345
21 -16 -7 -139 -92 -273 -189 -133 -97 -247 -176 -252 -176 -5 0 -119 79 -252
176 -134 97 -256 182 -273 189 -25 11 -73 8 -300 -15 -148 -16 -291 -31 -316
-35 l-46 -5 -128 287 c-70 159 -137 297 -149 309 -11 11 -150 78 -309 149
l-287 128 6 46 c3 25 18 168 34 316 23 227 26 275 15 300 -7 17 -92 139 -189
273 -97 133 -176 247 -176 252 0 5 79 119 176 252 97 134 182 257 189 273 11
25 8 73 -15 300 -16 149 -31 291 -34 316 l-6 46 287 128 c159 71 297 138 309
149 12 12 79 150 149 309 l128 287 46 -5 c270 -33 589 -61 610 -54 15 5 136
90 271 189 135 98 251 179 257 179 7 1 122 -78 255 -175z"/>
<path d="M3435 3510 c-11 -5 -324 -312 -695 -684 l-675 -676 -215 215 c-273
272 -241 265 -417 93 -141 -138 -161 -170 -139 -220 8 -19 169 -187 373 -390
350 -348 360 -358 398 -358 39 0 52 13 867 827 455 455 832 839 839 855 6 15
9 38 6 50 -9 33 -279 298 -303 297 -10 0 -28 -4 -39 -9z m92 -242 c29 -29 53
-57 53 -63 0 -5 -341 -351 -758 -768 l-757 -757 -295 295 -295 295 60 60 59
60 217 -215 c196 -196 219 -215 250 -215 32 0 80 46 714 680 374 374 684 680
690 680 5 0 33 -23 62 -52z"/>
</g>
</svg>
