<?xml version="1.0" standalone="no"?>
<!DOCTYPE svg PUBLIC "-//W3C//DTD SVG 20010904//EN"
 "http://www.w3.org/TR/2001/REC-SVG-20010904/DTD/svg10.dtd">
<svg version="1.0" xmlns="http://www.w3.org/2000/svg"
 width="512.000000pt" height="512.000000pt" viewBox="0 0 512.000000 512.000000"
 preserveAspectRatio="xMidYMid meet">

<g transform="translate(0.000000,512.000000) scale(0.100000,-0.100000)"
fill="#000000" stroke="none">
<path d="M3400 5105 c-315 -43 -552 -176 -701 -391 -114 -166 -179 -415 -179
-686 l0 -128 133 0 c341 0 601 89 790 268 197 188 297 471 297 839 l0 113
-122 -1 c-68 -1 -166 -7 -218 -14z m110 -249 c0 -57 -30 -195 -61 -279 -76
-210 -225 -345 -452 -411 -77 -23 -245 -51 -254 -43 -7 8 28 200 50 269 66
206 208 360 402 434 79 30 221 62 278 63 36 1 37 0 37 -33z"/>
<path d="M1516 3764 c-449 -81 -846 -428 -1016 -889 -50 -135 -81 -285 -95
-460 -8 -94 10 -431 31 -595 81 -642 304 -1177 624 -1500 114 -116 197 -176
321 -234 145 -68 209 -81 379 -80 166 2 279 25 423 90 169 75 219 94 292 109
179 37 363 6 560 -92 146 -73 297 -107 475 -107 109 0 150 4 212 22 329 94
608 368 818 804 60 126 180 447 180 483 0 9 -25 17 -72 25 -170 27 -290 73
-420 161 -168 115 -302 312 -355 526 -26 102 -23 313 6 418 45 168 151 341
269 443 124 106 213 153 387 203 75 21 112 36 106 43 -4 6 -36 49 -71 95 -223
296 -511 479 -844 537 -124 22 -378 14 -491 -15 -44 -11 -183 -56 -310 -101
-126 -45 -250 -84 -275 -87 -38 -4 -74 5 -225 57 -295 102 -386 130 -474 145
-105 19 -329 18 -435 -1z m395 -219 c46 -8 210 -58 364 -110 l280 -96 90 4
c81 5 115 14 325 87 301 105 361 121 496 127 236 12 449 -50 649 -188 39 -26
89 -68 113 -92 l44 -44 -75 -41 c-390 -214 -618 -673 -556 -1118 42 -306 220
-595 470 -764 68 -47 220 -121 286 -140 l41 -13 -24 -66 c-40 -107 -138 -299
-202 -396 -124 -187 -254 -314 -402 -393 -115 -62 -176 -77 -310 -75 -145 2
-228 23 -404 102 -151 69 -261 100 -384 109 -194 15 -354 -17 -561 -112 -134
-62 -193 -80 -311 -96 -291 -40 -557 114 -781 449 -249 372 -405 915 -428
1489 -8 220 1 358 35 491 119 478 480 823 934 894 62 10 235 6 311 -8z"/>
</g>
</svg>
